<?xml version="1.0" encoding="UTF-8" standalone="no"?>
<!-- Created with Inkscape (http://www.inkscape.org/) -->

<svg
   width="200mm"
   height="200mm"
   viewBox="0 0 200 200"
   version="1.1"
   id="svg5"
   xml:space="preserve"
   xmlns="http://www.w3.org/2000/svg"
   xmlns:svg="http://www.w3.org/2000/svg"><defs
     id="defs2" /><g
     id="layer1"><path
       opacity="1"
       fill="#1e3050"
       d="m 195.93888,65.428954 c 5.41483,5.41447 5.41483,14.207554 0,19.622027 L 85.051061,195.93918 c -5.414813,5.41443 -14.207633,5.41443 -19.621944,0 L 9.9846705,140.49506 c -5.4143119,-5.41447 -5.4143119,-14.20755 0,-19.62202 5.4148365,-5.41443 14.2076635,-5.41443 19.6219745,0 L 75.261838,166.48449 176.36039,65.428954 c 5.41431,-5.41447 14.20766,-5.41447 19.62197,0 z"
       id="path811"
       style="fill:#22b24a;fill-opacity:1;stroke-width:0.433157" /><path
       opacity="1"
       fill="#1e3050"
       d="M 81.952833,10.69685 C 80.417957,6.96859 76.752478,4.52514 72.711258,4.52514 c -4.041223,0 -7.706512,2.443829 -9.241576,6.17171 L 25.876886,100.9196 13.345954,130.99384 c -2.130109,5.10628 0.280378,10.96427 5.388283,13.09476 5.106351,2.12935 10.96457,-0.26523 13.094831,-5.38855 l 9.962108,-23.90254 h 61.840164 l 9.96211,23.90254 c 2.13011,5.10665 7.98848,7.51866 13.09483,5.38855 5.10635,-2.12936 7.51858,-7.98848 5.38832,-13.09476 L 119.54563,100.9196 Z M 95.266966,94.747898 H 50.155587 l 22.55567,-54.133655 z"
       id="path2013"
       style="fill:#22b24a;fill-opacity:1;stroke-width:0.313273" /><path
       id="path7584"
       style="fill:#22b24a;fill-opacity:1;stroke-width:0.229708"
       d="m 157.17542,85.234074 -14.66991,14.467851 c 0.33586,3.752295 3.47841,6.684865 7.31945,6.684865 4.0658,0 7.35046,-3.28515 7.35046,-7.350975 z" /><circle
       id="path7524"
       style="fill:#22b24a;stroke:#000000;stroke-width:0.264583"
       cx="105.27128"
       cy="44.234039"
       r="0.019159773" /><path
       id="path7600"
       style="fill:#22b24a;fill-opacity:1;stroke:#000000;stroke-width:0.264583px;stroke-linecap:butt;stroke-linejoin:miter;stroke-opacity:0"
       d="m 157.49943,65.9575 -0.32401,0.293521 V 65.9575 h 0.32401 m -7.67447,-55.12922 c -4.0658,0 -7.35045,3.28466 -7.35045,7.350455 V 51.25682 h -33.07809 c -0.31986,0 -0.63411,0.02257 -0.94309,0.06201 0.0238,0.05294 0.0523,0.1162 0.076,0.168982 1.01559,2.260491 1.96219,4.373559 2.84479,6.347933 0.8826,1.974375 1.70087,3.810405 2.4598,5.51801 0.41639,0.936892 0.77259,1.743396 1.15393,2.604492 h 27.4867 V 79.580672 L 157.17542,66.25177 v -0.293522 h 0.32401 L 173.71446,51.25682 H 157.17542 V 18.178735 c 0,-4.065795 -3.28466,-7.350455 -7.35046,-7.350455 z" /></g></svg>
